<svg xmlns="http://www.w3.org/2000/svg" viewBox="0 0 136.27 25.62"><defs><style>.cls-1{fill:#7f7f7f;}</style></defs><title>Asset 18</title><g id="Layer_2" data-name="Layer 2"><g id="Layer_2-2" data-name="Layer 2"><path class="cls-1" d="M135.9,21.63,122.27,1.73C121.12.11,118.78,0,117.55,0s-3.56.15-4.63,1.73l-11.46,17H94.38V2.82C94.42.7,91.48.3,89.65.27s-5,.56-5,2.54V6.61h0C83.18,2,77.64.46,72.57.45h-10a4.56,4.56,0,0,0-3.09.64A2.74,2.74,0,0,0,58,3.54v16.4a4.34,4.34,0,0,0-3.09-1.23H46V2.82C46.06.7,43.12.3,41.31.27s-5,.56-5,2.54v17.9c0,.12,0,.23,0,.34L23.23,2C22.15.41,19.81.3,18.5.27,17.4.31,15,.45,14,2L.42,22.08c-1.62,2.41,1.79,3.57,4,3.54s4.37-.31,5.27-1.72l1.91-2.73H26.14l1.45,2.18c1.22,1.89,3.15,2.32,5.45,2.18a6,6,0,0,0,3.91-1.73h0a2.17,2.17,0,0,0,.27.28c1.24,1.12,2.29,1.12,3.91,1.09H54.58a3.87,3.87,0,0,0,3.64-1.77c.63,1.55,2.82,2.16,4.72,2.13,2.3,0,4.85-.71,4.82-2.82v-5h4.81c5,0,10.63-1.84,12.09-6.26v9.26a4.51,4.51,0,0,0,.91,3.36c1,1,2.31,1.12,3.91,1.09h12.68a8.18,8.18,0,0,0,1.22.09c2.15,0,4.39-.25,5.36-1.64l1.82-2.81h14.54L126.54,23c1.25,2,3.18,2.38,5.45,2.18a5.61,5.61,0,0,0,3.91-1.64,1.28,1.28,0,0,0,.36-.82A2.15,2.15,0,0,0,135.9,21.63Zm-121-6.36L18.69,8.9l4.09,6.36Zm57.7-3.91H67.75V7.09h4.81c1.54,0,3.42,1,3.45,2.09C76,10.38,74.12,11.36,72.57,11.36ZM113.82,15l3.82-6.45L121.73,15Z"/></g></g></svg>