<svg xmlns="http://www.w3.org/2000/svg" viewBox="0 0 145.7 41.2"><title>ilim</title><path d="M41,27.5c-.4,1.7-1.6,5.3-3.2,5.6s-1.7-.3-2.5-2.5a9.7,9.7,0,0,1-.7-3.4,4.6,4.6,0,0,1,.1-1.2v-.3a.9.9,0,0,0-1.3-.8L2.2,38.8,6.5,19.4A22.6,22.6,0,0,1,14.3,7,21.6,21.6,0,0,1,27.8,1.8c.9.1,12.3,1.6,18.9.1L41,27.5M48.6.3a.8.8,0,0,0-.7-.3H47C40.8,1.7,28.1,0,28,0h-.1A23.4,23.4,0,0,0,13.2,5.6,24.4,24.4,0,0,0,4.7,19L0,40.1a.9.9,0,0,0,1.2,1.1H1.1L37.8,35h.3c3.3-.6,4.6-6.4,4.7-7.1L48.7,1.1A.9.9,0,0,0,48.6.3Z" fill="#7e7e7e"/><polyline points="68.9 15.4 74.8 15.4 70.6 35.1 64.7 35.1 67 24.4 58.8 35.1 52.8 35.1 57 15.4 63 15.4 60.7 26 68.9 15.4" fill="#7e7e7e"/><path d="M74,30h1.3a2.9,2.9,0,0,0,2.2-.8c.6-.6,1-1.5,1.5-3.9l2.3-10H97.3L93.1,35.1H87l3-14.3H85.8l-1.5,6.7c-.6,2.4-1.2,5.4-3.5,6.8a9.7,9.7,0,0,1-4.9,1.1,16.5,16.5,0,0,1-3-.3L74,30" fill="#7e7e7e"/><polyline points="112.9 15.4 118.9 15.4 114.7 35.1 108.8 35.1 111 24.4 102.8 35.1 96.9 35.1 101.1 15.4 107 15.4 104.8 26 112.9 15.4" fill="#7e7e7e"/><polyline points="126.4 22 126.3 22.1 126.1 23.5 123.6 35.1 118.1 35.1 122.3 15.4 130.6 15.4 131.4 26.5 131.2 27.9 131.4 27.9 131.9 26.5 137.4 15.4 145.7 15.4 141.5 35.1 136 35.1 138.4 23.5 138.9 22.1 138.7 22 132 35.1 127.6 35.1 126.4 22" fill="#7e7e7e"/></svg>