<svg xmlns="http://www.w3.org/2000/svg" viewBox="0 0 98.5 54.49"><defs><style>.cls-1{fill:#7f7f7f;}</style></defs><title>Asset 17</title><g id="Layer_2" data-name="Layer 2"><g id="Layer_2-2" data-name="Layer 2"><path class="cls-1" d="M64.92,39.9l.49.49V53.6l-.49.49V39.9"/><path class="cls-1" d="M93.53,54.1l.72-.66h3l.6.66H93.53"/><path class="cls-1" d="M.63,54.1l.6-.66h3L5,54.1H.63"/><path class="cls-1" d="M9.62,39.9l.66.66H16l.27-.66H9.62"/><path class="cls-1" d="M33.56,39.9l-.66.66V53.44l.66.66V39.9"/><polygon class="cls-1" points="26.7 39.5 21.59 44.62 16.48 39.5 9.22 39.5 9.22 54.49 16.95 54.49 16.95 48.54 21.59 53.18 26.23 48.54 26.23 54.49 33.96 54.49 33.96 39.5 26.7 39.5"/><path class="cls-1" d="M16.56,54.09l-.66-.66V46.22l.66,1.37v6.5"/><path class="cls-1" d="M16.56,54.09l-.49-.49h-6l-.49.49h6.94"/><path class="cls-1" d="M9.62,39.9l.49.49V53.6l-.49.49V39.9"/><path class="cls-1" d="M64.92,39.9l.66.66h6.27l.22-.66H64.92"/><path class="cls-1" d="M88.75,39.9l-.66.66H82.46l-.66-.66h6.94"/><path class="cls-1" d="M88.75,39.9l-.66.66V53.44l.66.66V39.9"/><polygon class="cls-1" points="81.41 39.5 81.41 46.34 72.2 39.5 64.52 39.5 64.52 54.49 72.26 54.49 72.26 47.71 81.41 54.49 89.14 54.49 89.14 39.5 81.41 39.5"/><path class="cls-1" d="M71.86,54.09l-.66-.66V45.82l.66,1.1v7.17"/><path class="cls-1" d="M71.86,54.09l-.49-.49h-6l-.49.49h6.94"/><path class="cls-1" d="M93.65,27.91h0q-1-2.15-2.27-4.17h0a49.4,49.4,0,0,0-4.11-5.78h0a49.55,49.55,0,0,0-4.87-5.11l0,0,0,0q-.87-.79-1.77-1.53h0q-.91-.75-1.86-1.46h0q-.94-.7-1.92-1.37h0q-1-.66-2-1.27h0q-1-.61-2-1.18h0q-1-.56-2.11-1.08h0Q68.45,3.82,66.2,3h0q-1.12-.41-2.26-.77h0q-1.14-.36-2.31-.66h0Q60.39,1.25,59.2,1h0Q58,.75,56.76.57h0Q55.53.38,54.3.26h0Q53.05.13,51.82.07h-.06Q50.51,0,49.25,0t-2.5.06h-.06q-1.24.06-2.46.19h0Q43,.38,41.76.57h0q-1.2.18-2.39.43H39.3q-1.18.24-2.34.54h0q-1.16.3-2.3.65h0q-1.14.36-2.26.76h0q-1.12.41-2.22.87h0q-1.1.46-2.17,1h0q-1.06.51-2.09,1.07h-.05q-1,.56-2,1.17h0q-1,.61-2,1.26h0l0,0q-1,.65-1.9,1.35h0q-.94.7-1.84,1.44h0Q17,12,16.16,12.77l0,0,0,0q-.86.78-1.68,1.61h0q-.82.82-1.61,1.69l0,0,0,0Q12,17,11.25,17.92h0q-.74.9-1.45,1.84h0q-.7.94-1.36,1.91h0q-.65,1-1.26,2v0q-.61,1-1.17,2h0q-.56,1-1.08,2.1h0q-.51,1.06-1,2.15v0Q3.4,31.19,3,32.3v0q-.41,1.11-.76,2.24v.06q-.35,1.13-.65,2.29v0Q1.25,38.12,1,39.3v.06Q.75,40.54.57,41.74h0Q.38,43,.26,44.2h0Q.13,45.45.07,46.69v.06Q0,48,0,49.25t.07,2.63h0q.07,1.31.21,2.59H5.42L5.19,51.9v0l-.08-2.63L5.17,47v0l.17-2.21v0l.28-2.18v0L6,40.38v0l.49-2.1v0l.58-2.06,0-.05.68-2v0l.77-2,0-.07.86-1.9,0,0,1-1.87v0l1-1.82,0,0,1.12-1.75,0,0,1.21-1.7h0l1.29-1.64,0,0,1.36-1.56,0,0L18,18l0,0,1.5-1.43,0,0,1.55-1.34.06-.05,1.61-1.27,0,0,1.7-1.21h0l1.78-1.14h0l1.84-1.06h0l1.88-1,0,0,1.92-.87h0l2-.77.06,0,2-.68h0L38.2,6.5h0L40.34,6h0l2.13-.38h.06l2.17-.28h0L47,5.17h0l2.26-.06,2.26.06h0l2.22.17h0l2.17.28H56L58.14,6h0l2.11.49h0l2.08.59h0l2,.68.06,0,2,.78,1.94.88h0l1.89,1,1.85,1.06,1.79,1.15h0l1.73,1.23,1.65,1.3,0,0,1.58,1.37h0L80.46,18h0l1.46,1.53,1.39,1.6,1.31,1.67,1.23,1.73h0L87,26.36l1.06,1.85,1,1.89v0l.88,1.94.79,2,.69,2h0L92,38.2v0l.49,2.12.39,2.16v0l.28,2.2L93.34,47l.06,2.27-.08,2.64-.23,2.6h5.14a50.06,50.06,0,0,0,.27-5.24A49.06,49.06,0,0,0,93.65,27.91Z"/><path class="cls-1" d="M53.37,39.49l9.76,15h-8l-1.09-1.68H44.46l-1.09,1.68h-8l9.76-15Zm-1.84,9.35-2.26-3.5L47,48.84Z"/></g></g></svg>