<svg xmlns="http://www.w3.org/2000/svg" viewBox="0 0 173.78 52.7"><defs><style>.cls-1{fill:#7f7f7f;}.cls-2{fill:#1d1d1b;}.cls-3{fill:#191919;}</style></defs><title>Asset 16</title><g id="Layer_2" data-name="Layer 2"><g id="Layer_2-2" data-name="Layer 2"><path class="cls-1" d="M3.26,16.56V45.29H173.78V16.56Zm130.32,6.68-3.15,8.56h6.08L135,36.06H122.82l4.73-12.82Zm-9.24,0L123.1,26.6H116L115.5,28h6.75l-1.16,3.16h-6.75l-.53,1.42H121l-1.27,3.46h-13.1l4.72-12.82Zm-25.5,0-1.7,4.62h3.13L102,23.24h5.91l-4.73,12.82H97.25l1.61-4.34H95.73l-1.61,4.34h-5.9l4.71-12.82Zm-17,.12a19.51,19.51,0,0,1,8.16.07l-1.88,4.51a2.54,2.54,0,0,0-2.49-1.26,7.61,7.61,0,0,0-3.35.72c-1.9.87-3.56,3.66-.87,4.74,1.49.6,3.39.12,5.37-.19l-1.5,3.89a32.69,32.69,0,0,1-4.68.52c-4,.11-7.54-1.5-7.58-4.41C73,26.89,78.07,24.13,81.84,23.36Zm-8.65-.12L68.47,36.06H62.26L67,23.24Zm-31.57,0h7.2c1.61,0,1.69,1.76,1.63,2.42-.07.87-.36,4.47-.36,4.47l4.54-6.89H63.4L58.68,36.06H53L56.36,27l-6.14,9.11h-5l.72-9.27-3.42,9.27H36.9Zm99.82,18.22H3.27v-1.8H142.1Zm-4.59-5.39,4.72-12.82h6.21l-4.72,12.82Zm26.72,0h-8.79l.4-9.08-3.34,9.08h-5.24l4.71-12.82h7.22a1.71,1.71,0,0,1,1.13.51,2.46,2.46,0,0,1,.53,1.88c-.11,2-.29,5.52-.33,6.4l3.24-8.8h5.19Z"/><path class="cls-1" d="M36.59,26.49c-.73-.87-1.69-1.1-1.75-1.53a3,3,0,0,0-1.52-4.21,3.09,3.09,0,0,0-1.06-2.49A3.78,3.78,0,0,0,31.4,14c.63-2.68-2.08-4.19-3.54-4.32a6.36,6.36,0,0,0-3-1,3.3,3.3,0,0,0-.43-4.19A3.52,3.52,0,0,0,22,1.14c-.5-1.24-3.25-1-3.57.11a3.86,3.86,0,0,0-2.38,3.93,3.18,3.18,0,0,0,0,4,8.1,8.1,0,0,0-2.86.55h0a3.89,3.89,0,0,0-2.2-.37,4.6,4.6,0,0,0-1-.42,3.34,3.34,0,0,0-1.12-1,2.68,2.68,0,0,0-1.4-1.64A3.06,3.06,0,0,0,7,4.65a2.13,2.13,0,0,1-.16-1.58A.77.77,0,0,0,6.77,2a1.25,1.25,0,0,0-2,0C3.94.49,3,.09,2.42.29,1.67-.29.49.07.51.78c-.49.34-.82.5-.06,1.89C.3,5.56.62,6.42,2.52,8a2.4,2.4,0,0,0-.33,2.78,3.93,3.93,0,0,0,1.52,3.43,4.45,4.45,0,0,0,3.47,3.44,4.53,4.53,0,0,0,3.31,2,3.68,3.68,0,0,0,.63,1.61,4.93,4.93,0,0,0,.09,3.16,4,4,0,0,0-.78,3.89,4.7,4.7,0,0,0-.67,4.83,3.29,3.29,0,0,0-.44.89,4,4,0,0,0-1.8,2.13,5.07,5.07,0,0,0,0,2.69,3.56,3.56,0,0,0,.25,5.32,13.84,13.84,0,0,1-2.54,4.05c-.8,1-.95,1.58,0,2.8A4.53,4.53,0,0,0,8.3,52.69c2.11.08,3.55-.38,3.78-1.87a13.21,13.21,0,0,0-.49-3.14,5.52,5.52,0,0,1,.54-2.24,3.67,3.67,0,0,0,3-3.21,3.81,3.81,0,0,0,2-4.24,2.58,2.58,0,0,0,.49-1,3.55,3.55,0,0,0,.79,1.79,3.83,3.83,0,0,0,1.49,4.65c-2.11,3,.17,4.44.78,5.07s.82,2,2,2.43c1,.37,4.34,0,5-1.39.16-.36.31-.76.14-1,0-1-.62-1.73-1.75-2.38s-1.24-.52-1.85-2.45a4.29,4.29,0,0,0,2.22-4.1c1.38-1.71,1.3-3.18.54-4.2a3,3,0,0,0,0-1.93,4.24,4.24,0,0,0,1.22-4.29,4.2,4.2,0,0,0,.66-3.4A2.82,2.82,0,0,0,31.45,27s.09.32.15.46c-.31.57-.17,1.26.64,1.86a1.07,1.07,0,0,0,.43.62c0,.27.67,1.4,1.5.8l1-.62c.7.63,2.46.13,2.29-1.05C37.78,28.54,37.38,27.42,36.59,26.49Zm-6.06-7.65a3.58,3.58,0,0,0-.73-2.2,5.59,5.59,0,0,0,1.12-1.85C31.26,15,32.63,17.59,30.53,18.85Zm-.34-4.18a3.82,3.82,0,0,0-1.36-2.92,1,1,0,0,0-.06-.79A2.52,2.52,0,0,1,30.19,14.66ZM20.66,19.4c-3.57-.06-5.16-1.18-5.91-1.76A6.58,6.58,0,0,0,15.62,14c4.69,1.84,11.46.27,12.9-1.48C31.72,16.87,26,19.49,20.66,19.4Zm-3.36-9c.22.11.44.12.51,0s0-.24-.19-.32c-.4-.23-.2-.57.07-.73s0-.15,0-.15c-2.22-1-1.55-3.81.05-3.94a.11.11,0,0,0,0-.21,2.65,2.65,0,0,0-.77.09,2.88,2.88,0,0,1,2.71-3.19c.18,0,.09-.16,0-.17s-.44-.1-.34-.2c.49-.45,1.72-.31,1.78,0a.11.11,0,0,1-.09.14v.14c1.7.35,2.61,1.49,2.49,2.84-.24,0-.05.24-.05.24a2.33,2.33,0,0,1,1,2.13c-.07,1.4-.88,1.7-1.12,1.74a.67.67,0,0,1-.3,1.08c-.18.09-.07.22.09.21a1.6,1.6,0,0,0,.88-.48c2.22.13,4.27.81,4.07,1.92-.24,1.33-3.34,2.62-7.8,2.61a11.94,11.94,0,0,1-4.87-1,5.39,5.39,0,0,0-1.55-2.74A4.57,4.57,0,0,1,17.3,10.35ZM5,9A.93.93,0,0,1,4,8.38a2.46,2.46,0,0,0-.54-.74C1.32,6,1.18,5.36,1.29,2.93c0-.09,0-.17.16-.14a.54.54,0,0,1,.4.4,5.69,5.69,0,0,0,.5,2s.23-.17.32-.22a6.19,6.19,0,0,1-.44-1.82.91.91,0,0,0-1-.71,4.69,4.69,0,0,0-.4-.85.38.38,0,0,1,.6.06A10.87,10.87,0,0,1,2.58,3.3c.27.61.49.93.67,1s.19-.1.19-.1a24.84,24.84,0,0,0-1.63-2.9A1.36,1.36,0,0,0,1.33.86c.12-.21.5-.11.83.23A11.24,11.24,0,0,1,3.91,3.92s.38-.07.2-.5A23.44,23.44,0,0,0,2.8,1.09c.51.06,1.25,1,1.64,2a5.05,5.05,0,0,0,.21,1.35,1.57,1.57,0,0,0-.19,1.08H4.6l.17-.22c.21-.68.59-.67.63-.68a2.11,2.11,0,0,1,0-2c.31-.48.64-.2.84,0a2.85,2.85,0,0,0-.09,2A5,5,0,0,1,6.59,6c0,.84-.61,1.12-.41,1.68s-.29.85-.08,1.11.68-.1.64-.49c0-.17-.05-.95.25-1.23,1.39.57,1.55,3-.76,4.08S1.87,10.06,3.36,8.48c0,0,.36.52.48.69a1.06,1.06,0,0,0,1.31.07ZM3.17,11.45c2,1.5,5.22-.23,5.55-2.54a2.32,2.32,0,0,1,.54.66,3.1,3.1,0,0,1-.75,3.82A3.23,3.23,0,0,1,3.17,11.45Zm1.61,3A4,4,0,0,0,10.2,10c.9.18,2.8,3.47.92,5.57A3.79,3.79,0,0,1,4.78,14.49Zm3.7,3.09c3,0,5.67-3,3.36-7.25,2,.52,3.19,2.07,3,4.8C14.56,19.22,10.17,19.34,8.48,17.58Zm3.34,7.53c2.49,3.52,7.74,3.61,9.37,3.58,0,2.23-2.68,3.84-6,3.08C12.1,30.93,10.09,27.52,11.82,25.11Zm-1,25.7a4.48,4.48,0,0,1-4.43-.49l-.1.1A3.31,3.31,0,0,0,9.45,51.7v.15A3.57,3.57,0,0,1,6,50.64a1.27,1.27,0,0,1,0-1.84,22,22,0,0,0,2.77-4.22c.38.61,1.82.78,2.45.77a6.25,6.25,0,0,0-.5,2.42c.07.62.44,1.71.51,2.36A.71.71,0,0,1,10.84,50.81ZM9.73,44.47c-2.08-.72-3-3.7-1.68-4.89a5.16,5.16,0,0,0,6.12,2.84C13.95,43.52,12.69,45.5,9.73,44.47ZM11,41.68C8.91,41,7.05,37.4,9.28,35.16a4.35,4.35,0,0,0,2.61,3.68,4.5,4.5,0,0,0,4.38-.31C16.62,39.62,15.14,43.13,11,41.68Zm1.09-3.37a3.26,3.26,0,0,1-1.63-4.51,6,6,0,0,0,6.42,2.29C17,37.51,15,39.46,12.07,38.31Zm3.18-2.6c-2.72.14-6.47-3-4.26-6.62a6.6,6.6,0,0,0,8.78,2.79C19.62,33.39,18.63,35.54,15.25,35.72Zm4.7-1.93a5.46,5.46,0,0,0,6.2.11c.46,2.12-1.47,3.38-3.22,3.36s-3.35-1-3.57-2.56A5.87,5.87,0,0,0,19.95,33.78Zm4.46,12.27c.68.66,3.52,1.37,2.15,2.79a4.43,4.43,0,0,1-2.88.73l-.06.15a3.39,3.39,0,0,0,3.2-.56l.12.08c-.31.7-2.82,1.27-3.84.79-1.21-.56-1-1.24-1.78-2-1.71-1.61-1.47-2.29-1.23-3.19a3.32,3.32,0,0,1,.67-1.14,3.52,3.52,0,0,0,2.7.1c0,.09.07.35.1.44a11.17,11.17,0,0,0-1.41.24l.19.59a9,9,0,0,1,1.38-.22s.16.44.22.56a6.12,6.12,0,0,0-1.31.25l.19.56A4.88,4.88,0,0,1,24.41,46.05Zm-2.29-2.64a3,3,0,0,1-2.94-3.92,4.4,4.4,0,0,0,3.33,1.61,4.51,4.51,0,0,0,2.93-.91A2.94,2.94,0,0,1,22.12,43.41Zm.34-2.92c-2.85,0-4.88-3.18-3.61-5.29.87,3,5.53,3.54,7.53,1.08C27.06,37.56,26,40.51,22.46,40.5Zm-2.24-7.25a6.47,6.47,0,0,0,.33-1.86l.21-.17a6.65,6.65,0,0,0,6.65-1.36C27.74,34.07,22.64,35.33,20.22,33.25Zm1-2.46a3.59,3.59,0,0,0,.71-2.12A9.23,9.23,0,0,0,28,26.37C28.29,30.08,24.39,31.7,21.23,30.79Zm0-2.82c-3.73.13-10-1.39-9.19-6.07,4,3.76,12.56,4.1,16.55,1C28.84,24.69,27.45,27.75,21.19,28Zm0-3.7c-5,0-9.38-2.34-9.66-4.81a4.32,4.32,0,0,0,2.7-1.23c4.15,3.27,12.57,1.8,15.1-.83C30.39,19.29,29.42,24.19,21.19,24.27ZM30.35,20a3.57,3.57,0,0,0,1.29-1c1.94,1.86-.06,4.29-2.25,4.48a11.32,11.32,0,0,0-.14-1.26A4.48,4.48,0,0,0,30.35,20Zm-1,4a4.15,4.15,0,0,0,3.6-2.39,2.33,2.33,0,0,1-.09,4.27C30.6,26.88,29.11,25.15,29.35,24Zm3.09,4.57a.61.61,0,0,1-.13-.85c.07-.08.25,0,.4.14A3.25,3.25,0,0,0,32.44,28.56Zm.82-.52c.41.15.33.45.48.7a2,2,0,0,0-.6.46C32.8,29.25,32.83,27.89,33.26,28ZM34,29.85c-.35.22-.42.23-.53.06-.22-.37.24-.8.81-1a1.44,1.44,0,0,1,.36.45C34.6,29.44,34.25,29.72,34,29.85Zm2.33-.37c-.16.12-.68.28-1.38-.63a4.87,4.87,0,0,0-.94-.58.83.83,0,0,0-1-.67,1.07,1.07,0,0,0-.5-.36,3.81,3.81,0,0,1-.2-.58,4.85,4.85,0,0,0,1.81-1,2.45,2.45,0,0,0,.7.65,3.38,3.38,0,0,1,1.69,2,15.46,15.46,0,0,1-1.5-1.62c-.11-.18-.27-.25-.28-.15a5.54,5.54,0,0,0,.9,1.47C36.14,28.59,37,29,36.36,29.48Z"/><path class="cls-2" d="M31.64,18.93a3.57,3.57,0,0,1-1.29,1,4.48,4.48,0,0,1-1.11,2.19,11.32,11.32,0,0,1,.14,1.26C31.58,23.22,33.58,20.79,31.64,18.93Z"/><path class="cls-3" d="M31.64,18.93a3.57,3.57,0,0,1-1.29,1,4.48,4.48,0,0,1-1.11,2.19,11.32,11.32,0,0,1,.14,1.26C31.58,23.22,33.58,20.79,31.64,18.93Z"/><path class="cls-2" d="M32.95,21.59A4.15,4.15,0,0,1,29.35,24c-.24,1.16,1.25,2.89,3.51,1.88A2.33,2.33,0,0,0,32.95,21.59Z"/><path class="cls-3" d="M32.95,21.59A4.15,4.15,0,0,1,29.35,24c-.24,1.16,1.25,2.89,3.51,1.88A2.33,2.33,0,0,0,32.95,21.59Z"/><path class="cls-2" d="M32.3,27.7a.61.61,0,0,0,.13.85,3.25,3.25,0,0,1,.27-.72C32.56,27.66,32.38,27.62,32.3,27.7Z"/><path class="cls-3" d="M32.3,27.7a.61.61,0,0,0,.13.85,3.25,3.25,0,0,1,.27-.72C32.56,27.66,32.38,27.62,32.3,27.7Z"/><path class="cls-2" d="M33.26,28c-.42-.15-.45,1.21-.12,1.16a2,2,0,0,1,.6-.46C33.59,28.48,33.67,28.19,33.26,28Z"/><path class="cls-3" d="M33.26,28c-.42-.15-.45,1.21-.12,1.16a2,2,0,0,1,.6-.46C33.59,28.48,33.67,28.19,33.26,28Z"/><path class="cls-2" d="M34.31,28.94c-.57.17-1,.61-.81,1,.1.17.17.16.53-.06s.57-.42.64-.47A1.44,1.44,0,0,0,34.31,28.94Z"/><path class="cls-3" d="M34.31,28.94c-.57.17-1,.61-.81,1,.1.17.17.16.53-.06s.57-.42.64-.47A1.44,1.44,0,0,0,34.31,28.94Z"/><path class="cls-2" d="M35.67,28a5.54,5.54,0,0,1-.9-1.47c0-.09.17,0,.28.15a15.46,15.46,0,0,0,1.5,1.62,3.38,3.38,0,0,0-1.69-2,2.45,2.45,0,0,1-.7-.65,4.85,4.85,0,0,1-1.81,1,3.81,3.81,0,0,0,.2.58,1.07,1.07,0,0,1,.5.36.83.83,0,0,1,1,.67,4.87,4.87,0,0,1,.94.58c.7.91,1.22.75,1.38.63C37,29,36.14,28.59,35.67,28Z"/><path class="cls-3" d="M35.67,28a5.54,5.54,0,0,1-.9-1.47c0-.09.17,0,.28.15a15.46,15.46,0,0,0,1.5,1.62,3.38,3.38,0,0,0-1.69-2,2.45,2.45,0,0,1-.7-.65,4.85,4.85,0,0,1-1.81,1,3.81,3.81,0,0,0,.2.58,1.07,1.07,0,0,1,.5.36.83.83,0,0,1,1,.67,4.87,4.87,0,0,1,.94.58c.7.91,1.22.75,1.38.63C37,29,36.14,28.59,35.67,28Z"/><path class="cls-2" d="M29.33,17.4c-2.52,2.63-10.95,4.1-15.1.83a4.32,4.32,0,0,1-2.7,1.23c.28,2.47,4.65,4.86,9.66,4.81C29.42,24.19,30.39,19.29,29.33,17.4Z"/><path class="cls-3" d="M29.33,17.4c-2.52,2.63-10.95,4.1-15.1.83a4.32,4.32,0,0,1-2.7,1.23c.28,2.47,4.65,4.86,9.66,4.81C29.42,24.19,30.39,19.29,29.33,17.4Z"/><path class="cls-2" d="M15.62,14a6.58,6.58,0,0,1-.87,3.64c.74.59,2.33,1.71,5.91,1.76,5.36.08,11.06-2.53,7.86-6.89C27.08,14.27,20.31,15.84,15.62,14Z"/><path class="cls-3" d="M15.62,14a6.58,6.58,0,0,1-.87,3.64c.74.59,2.33,1.71,5.91,1.76,5.36.08,11.06-2.53,7.86-6.89C27.08,14.27,20.31,15.84,15.62,14Z"/><path class="cls-2" d="M8.51,13.4a3.1,3.1,0,0,0,.75-3.82,2.32,2.32,0,0,0-.54-.66c-.32,2.3-3.5,4-5.55,2.54A3.23,3.23,0,0,0,8.51,13.4Z"/><path class="cls-3" d="M8.51,13.4a3.1,3.1,0,0,0,.75-3.82,2.32,2.32,0,0,0-.54-.66c-.32,2.3-3.5,4-5.55,2.54A3.23,3.23,0,0,0,8.51,13.4Z"/><path class="cls-2" d="M10.2,10a4,4,0,0,1-5.42,4.5,3.79,3.79,0,0,0,6.34,1.08C13,13.46,11.1,10.17,10.2,10Z"/><path class="cls-3" d="M10.2,10a4,4,0,0,1-5.42,4.5,3.79,3.79,0,0,0,6.34,1.08C13,13.46,11.1,10.17,10.2,10Z"/><path class="cls-2" d="M14.84,15.13c.19-2.74-1-4.28-3-4.8,2.32,4.27-.38,7.21-3.36,7.25C10.17,19.34,14.56,19.22,14.84,15.13Z"/><path class="cls-3" d="M14.84,15.13c.19-2.74-1-4.28-3-4.8,2.32,4.27-.38,7.21-3.36,7.25C10.17,19.34,14.56,19.22,14.84,15.13Z"/><path class="cls-2" d="M12,21.9c-.78,4.69,5.46,6.21,9.19,6.07,6.26-.22,7.65-3.28,7.36-5.07C24.56,26,16,25.66,12,21.9Z"/><path class="cls-3" d="M12,21.9c-.78,4.69,5.46,6.21,9.19,6.07,6.26-.22,7.65-3.28,7.36-5.07C24.56,26,16,25.66,12,21.9Z"/><path class="cls-2" d="M15.2,31.77c3.31.76,6-.85,6-3.08-1.63,0-6.88-.06-9.37-3.58C10.09,27.52,12.1,30.93,15.2,31.77Z"/><path class="cls-3" d="M15.2,31.77c3.31.76,6-.85,6-3.08-1.63,0-6.88-.06-9.37-3.58C10.09,27.52,12.1,30.93,15.2,31.77Z"/><path class="cls-2" d="M19.76,31.89A6.6,6.6,0,0,1,11,29.1c-2.2,3.58,1.55,6.76,4.26,6.62C18.63,35.54,19.62,33.39,19.76,31.89Z"/><path class="cls-3" d="M19.76,31.89A6.6,6.6,0,0,1,11,29.1c-2.2,3.58,1.55,6.76,4.26,6.62C18.63,35.54,19.62,33.39,19.76,31.89Z"/><path class="cls-2" d="M10.44,33.81a3.26,3.26,0,0,0,1.63,4.51C15,39.46,17,37.51,16.86,36.1A6,6,0,0,1,10.44,33.81Z"/><path class="cls-3" d="M10.44,33.81a3.26,3.26,0,0,0,1.63,4.51C15,39.46,17,37.51,16.86,36.1A6,6,0,0,1,10.44,33.81Z"/><path class="cls-2" d="M8,39.58c-1.35,1.19-.4,4.17,1.68,4.89,3,1,4.22-.95,4.44-2.05A5.16,5.16,0,0,1,8,39.58Z"/><path class="cls-3" d="M8,39.58c-1.35,1.19-.4,4.17,1.68,4.89,3,1,4.22-.95,4.44-2.05A5.16,5.16,0,0,1,8,39.58Z"/><path class="cls-2" d="M11.89,38.84a4.35,4.35,0,0,1-2.61-3.68C7.05,37.4,8.91,41,11,41.68c4.16,1.44,5.64-2.06,5.29-3.15A4.5,4.5,0,0,1,11.89,38.84Z"/><path class="cls-3" d="M11.89,38.84a4.35,4.35,0,0,1-2.61-3.68C7.05,37.4,8.91,41,11,41.68c4.16,1.44,5.64-2.06,5.29-3.15A4.5,4.5,0,0,1,11.89,38.84Z"/><path class="cls-2" d="M22.81,46.27l-.19-.56a6.12,6.12,0,0,1,1.31-.25c-.06-.12-.22-.56-.22-.56a9,9,0,0,0-1.38.22l-.19-.59a11.17,11.17,0,0,1,1.41-.24c0-.1-.08-.36-.1-.44a3.52,3.52,0,0,1-2.7-.1,3.32,3.32,0,0,0-.67,1.14c-.24.9-.48,1.57,1.23,3.19.77.73.58,1.41,1.78,2,1,.47,3.53-.1,3.84-.79l-.12-.08a3.39,3.39,0,0,1-3.2.56l.06-.15a4.43,4.43,0,0,0,2.88-.73c1.37-1.42-1.46-2.13-2.15-2.79A4.88,4.88,0,0,0,22.81,46.27Z"/><path class="cls-3" d="M22.81,46.27l-.19-.56a6.12,6.12,0,0,1,1.31-.25c-.06-.12-.22-.56-.22-.56a9,9,0,0,0-1.38.22l-.19-.59a11.17,11.17,0,0,1,1.41-.24c0-.1-.08-.36-.1-.44a3.52,3.52,0,0,1-2.7-.1,3.32,3.32,0,0,0-.67,1.14c-.24.9-.48,1.57,1.23,3.19.77.73.58,1.41,1.78,2,1,.47,3.53-.1,3.84-.79l-.12-.08a3.39,3.39,0,0,1-3.2.56l.06-.15a4.43,4.43,0,0,0,2.88-.73c1.37-1.42-1.46-2.13-2.15-2.79A4.88,4.88,0,0,0,22.81,46.27Z"/><path class="cls-2" d="M22.5,41.11a4.4,4.4,0,0,1-3.33-1.61,3,3,0,0,0,2.94,3.92,2.94,2.94,0,0,0,3.32-3.22A4.51,4.51,0,0,1,22.5,41.11Z"/><path class="cls-3" d="M22.5,41.11a4.4,4.4,0,0,1-3.33-1.61,3,3,0,0,0,2.94,3.92,2.94,2.94,0,0,0,3.32-3.22A4.51,4.51,0,0,1,22.5,41.11Z"/><path class="cls-2" d="M18.85,35.2c-1.27,2.12.76,5.28,3.61,5.29,3.5,0,4.6-2.93,3.92-4.21C24.38,38.74,19.72,38.25,18.85,35.2Z"/><path class="cls-3" d="M18.85,35.2c-1.27,2.12.76,5.28,3.61,5.29,3.5,0,4.6-2.93,3.92-4.21C24.38,38.74,19.72,38.25,18.85,35.2Z"/><path class="cls-2" d="M22.93,37.26c1.75,0,3.68-1.24,3.22-3.36a5.46,5.46,0,0,1-6.2-.11,5.87,5.87,0,0,1-.59.91C19.58,36.28,21.27,37.25,22.93,37.26Z"/><path class="cls-3" d="M22.93,37.26c1.75,0,3.68-1.24,3.22-3.36a5.46,5.46,0,0,1-6.2-.11,5.87,5.87,0,0,1-.59.91C19.58,36.28,21.27,37.25,22.93,37.26Z"/><path class="cls-2" d="M20.76,31.21l-.21.17a6.47,6.47,0,0,1-.33,1.86c2.42,2.08,7.52.82,7.18-3.4A6.65,6.65,0,0,1,20.76,31.21Z"/><path class="cls-3" d="M20.76,31.21l-.21.17a6.47,6.47,0,0,1-.33,1.86c2.42,2.08,7.52.82,7.18-3.4A6.65,6.65,0,0,1,20.76,31.21Z"/><path class="cls-2" d="M21.23,30.79c3.16.91,7.05-.71,6.8-4.42a9.23,9.23,0,0,1-6.09,2.3A3.59,3.59,0,0,1,21.23,30.79Z"/><path class="cls-3" d="M21.23,30.79c3.16.91,7.05-.71,6.8-4.42a9.23,9.23,0,0,1-6.09,2.3A3.59,3.59,0,0,1,21.23,30.79Z"/><path class="cls-2" d="M3.85,9.17c-.13-.17-.48-.69-.48-.69-1.5,1.59.51,3.73,2.87,2.66S8.39,7.63,7,7.06c-.3.29-.27,1.07-.25,1.23,0,.39-.56.6-.64.49s.29-.52.08-1.11.41-.85.41-1.68a5,5,0,0,0-.47-1.46,2.85,2.85,0,0,1,.09-2c-.2-.19-.53-.47-.84,0a2.11,2.11,0,0,0,0,2s-.42,0-.63.68l-.17.22H4.46a1.57,1.57,0,0,1,.19-1.08,5.05,5.05,0,0,1-.21-1.35c-.39-1-1.13-2-1.64-2A23.44,23.44,0,0,1,4.11,3.43c.18.42-.2.5-.2.5A11.24,11.24,0,0,0,2.16,1.1C1.83.76,1.45.65,1.33.86a1.36,1.36,0,0,1,.48.41,24.84,24.84,0,0,1,1.63,2.9s-.09.11-.19.1-.4-.35-.67-1A10.87,10.87,0,0,0,1.47,1.62a.38.38,0,0,0-.6-.06,4.69,4.69,0,0,1,.4.85.91.91,0,0,1,1,.71,6.19,6.19,0,0,0,.44,1.82c-.09,0-.32.22-.32.22a5.69,5.69,0,0,1-.5-2,.54.54,0,0,0-.4-.4c-.13,0-.15,0-.16.14-.11,2.42,0,3,2.18,4.71A2.46,2.46,0,0,1,4,8.38.93.93,0,0,0,5,9l.2.21A1.06,1.06,0,0,1,3.85,9.17ZM4.17,5.9s-.38-.17-.58-.31-.65-.09-.66-.19.28-.14.54-.14.37.15.56.14S4.24,5.84,4.17,5.9Z"/><path class="cls-3" d="M3.85,9.17c-.13-.17-.48-.69-.48-.69-1.5,1.59.51,3.73,2.87,2.66S8.39,7.63,7,7.06c-.3.29-.27,1.07-.25,1.23,0,.39-.56.6-.64.49s.29-.52.08-1.11.41-.85.41-1.68a5,5,0,0,0-.47-1.46,2.85,2.85,0,0,1,.09-2c-.2-.19-.53-.47-.84,0a2.11,2.11,0,0,0,0,2s-.42,0-.63.68l-.17.22H4.46a1.57,1.57,0,0,1,.19-1.08,5.05,5.05,0,0,1-.21-1.35c-.39-1-1.13-2-1.64-2A23.44,23.44,0,0,1,4.11,3.43c.18.42-.2.5-.2.5A11.24,11.24,0,0,0,2.16,1.1C1.83.76,1.45.65,1.33.86a1.36,1.36,0,0,1,.48.41,24.84,24.84,0,0,1,1.63,2.9s-.09.11-.19.1-.4-.35-.67-1A10.87,10.87,0,0,0,1.47,1.62a.38.38,0,0,0-.6-.06,4.69,4.69,0,0,1,.4.85.91.91,0,0,1,1,.71,6.19,6.19,0,0,0,.44,1.82c-.09,0-.32.22-.32.22a5.69,5.69,0,0,1-.5-2,.54.54,0,0,0-.4-.4c-.13,0-.15,0-.16.14-.11,2.42,0,3,2.18,4.71A2.46,2.46,0,0,1,4,8.38.93.93,0,0,0,5,9l.2.21A1.06,1.06,0,0,1,3.85,9.17ZM4.17,5.9s-.38-.17-.58-.31-.65-.09-.66-.19.28-.14.54-.14.37.15.56.14S4.24,5.84,4.17,5.9Z"/><path class="cls-3" d="M11.17,45.35c-.63,0-2.07-.16-2.45-.77A22,22,0,0,1,5.95,48.8a1.27,1.27,0,0,0,0,1.84,3.57,3.57,0,0,0,3.47,1.21V51.7a3.31,3.31,0,0,1-3.14-1.28l.1-.1a4.48,4.48,0,0,0,4.43.49.71.71,0,0,0,.34-.68c-.07-.65-.44-1.74-.51-2.36A6.25,6.25,0,0,1,11.17,45.35ZM9.92,47.78a7.82,7.82,0,0,0-1.78-.27l0-.59a8.41,8.41,0,0,1,1.94.3Zm.33-1.18a5.44,5.44,0,0,0-1.82-.3l0-.59a6,6,0,0,1,2,.33Z"/><path class="cls-2" d="M28.83,11.74a3.82,3.82,0,0,1,1.36,2.92,2.52,2.52,0,0,0-1.42-3.72A1,1,0,0,1,28.83,11.74Z"/><path class="cls-3" d="M28.83,11.74a3.82,3.82,0,0,1,1.36,2.92,2.52,2.52,0,0,0-1.42-3.72A1,1,0,0,1,28.83,11.74Z"/><path class="cls-2" d="M30.53,18.85c2.1-1.25.73-3.83.39-4a5.59,5.59,0,0,1-1.12,1.85A3.58,3.58,0,0,1,30.53,18.85Z"/><path class="cls-3" d="M30.53,18.85c2.1-1.25.73-3.83.39-4a5.59,5.59,0,0,1-1.12,1.85A3.58,3.58,0,0,1,30.53,18.85Z"/><path class="cls-2" d="M15.45,13.16a11.94,11.94,0,0,0,4.87,1c4.46,0,7.56-1.28,7.8-2.61.2-1.11-1.84-1.79-4.07-1.92a1.6,1.6,0,0,1-.88.48c-.16,0-.27-.11-.09-.21a.67.67,0,0,0,.3-1.08c.24,0,1.05-.33,1.12-1.74a2.33,2.33,0,0,0-1-2.13s-.19-.21.05-.24c.12-1.35-.79-2.49-2.49-2.84V1.68a.11.11,0,0,0,.09-.14c-.06-.33-1.29-.47-1.78,0-.1.1.24.2.34.2s.21.17,0,.17A2.88,2.88,0,0,0,17,5.07,2.65,2.65,0,0,1,17.79,5a.11.11,0,0,1,0,.21c-1.61.12-2.27,2.94-.05,3.94,0,0,.11.06,0,.15s-.47.51-.07.73c.14.08.25.19.19.32s-.29.12-.51,0a4.57,4.57,0,0,0-3.4.06A5.39,5.39,0,0,1,15.45,13.16ZM22,3.17a.73.73,0,0,1,.55.18,1.81,1.81,0,0,1,.54,1.25c.06.86-.32,1.58-.87,1.63A.74.74,0,0,1,21.64,6a1.83,1.83,0,0,1-.54-1.24C21,3.95,21.42,3.24,22,3.17Zm.33,4a.43.43,0,0,1,.2-.11c.15,0,.27.48.21.51a2.7,2.7,0,0,1-.34,0c-.28,0-.65.67-1,.84-.56.24-1.09-.43-1.35-.61a1.18,1.18,0,0,0-.75-.2c-.12.13-.23.26-.32.18s0-.25.22-.58c0,0,.09-.15.14-.15s.17.13.16.23A9.31,9.31,0,0,1,22.3,7.19Zm-2.78-4a.77.77,0,0,1,.6.21,1.79,1.79,0,0,1,.51,1.27c0,.88-.4,1.6-1,1.64A.8.8,0,0,1,19,6.13a1.81,1.81,0,0,1-.51-1.26C18.51,4,18.94,3.28,19.52,3.23Z"/><path class="cls-3" d="M15.45,13.16a11.94,11.94,0,0,0,4.87,1c4.46,0,7.56-1.28,7.8-2.61.2-1.11-1.84-1.79-4.07-1.92a1.6,1.6,0,0,1-.88.48c-.16,0-.27-.11-.09-.21a.67.67,0,0,0,.3-1.08c.24,0,1.05-.33,1.12-1.74a2.33,2.33,0,0,0-1-2.13s-.19-.21.05-.24c.12-1.35-.79-2.49-2.49-2.84V1.68a.11.11,0,0,0,.09-.14c-.06-.33-1.29-.47-1.78,0-.1.1.24.2.34.2s.21.17,0,.17A2.88,2.88,0,0,0,17,5.07,2.65,2.65,0,0,1,17.79,5a.11.11,0,0,1,0,.21c-1.61.12-2.27,2.94-.05,3.94,0,0,.11.06,0,.15s-.47.51-.07.73c.14.08.25.19.19.32s-.29.12-.51,0a4.57,4.57,0,0,0-3.4.06A5.39,5.39,0,0,1,15.45,13.16ZM22,3.17a.73.73,0,0,1,.55.18,1.81,1.81,0,0,1,.54,1.25c.06.86-.32,1.58-.87,1.63A.74.74,0,0,1,21.64,6a1.83,1.83,0,0,1-.54-1.24C21,3.95,21.42,3.24,22,3.17Zm.33,4a.43.43,0,0,1,.2-.11c.15,0,.27.48.21.51a2.7,2.7,0,0,1-.34,0c-.28,0-.65.67-1,.84-.56.24-1.09-.43-1.35-.61a1.18,1.18,0,0,0-.75-.2c-.12.13-.23.26-.32.18s0-.25.22-.58c0,0,.09-.15.14-.15s.17.13.16.23A9.31,9.31,0,0,1,22.3,7.19Zm-2.78-4a.77.77,0,0,1,.6.21,1.79,1.79,0,0,1,.51,1.27c0,.88-.4,1.6-1,1.64A.8.8,0,0,1,19,6.13a1.81,1.81,0,0,1-.51-1.26C18.51,4,18.94,3.28,19.52,3.23Z"/><path class="cls-2" d="M21.29,8.12c.13-.07.56-.53.71-.65a5.28,5.28,0,0,0-1.93.07C20.54,7.75,20.82,8.36,21.29,8.12Z"/><path class="cls-3" d="M21.29,8.12c.13-.07.56-.53.71-.65a5.28,5.28,0,0,0-1.93.07C20.54,7.75,20.82,8.36,21.29,8.12Z"/><path class="cls-2" d="M3.48,5.27c-.26,0-.55.07-.54.14s.35,0,.66.19.53.36.58.31S4.1,5.54,4,5.41,3.67,5.28,3.48,5.27Z"/><path class="cls-2" d="M3.48,5.27c-.26,0-.55.07-.54.14s.35,0,.66.19.53.36.58.31S4.1,5.54,4,5.41,3.67,5.28,3.48,5.27Z"/><path class="cls-1" d="M3.48,5.27c-.26,0-.55.07-.54.14s.35,0,.66.19.53.36.58.31S4.1,5.54,4,5.41,3.67,5.28,3.48,5.27Z"/><path class="cls-2" d="M8.14,47.5a7.82,7.82,0,0,1,1.78.27l.17-.56a8.41,8.41,0,0,0-1.94-.3Z"/><path class="cls-2" d="M8.14,47.5a7.82,7.82,0,0,1,1.78.27l.17-.56a8.41,8.41,0,0,0-1.94-.3Z"/><path class="cls-1" d="M8.14,47.5a7.82,7.82,0,0,1,1.78.27l.17-.56a8.41,8.41,0,0,0-1.94-.3Z"/><path class="cls-2" d="M8.43,46.3a5.44,5.44,0,0,1,1.82.3l.18-.56a6,6,0,0,0-2-.33Z"/><path class="cls-2" d="M8.43,46.3a5.44,5.44,0,0,1,1.82.3l.18-.56a6,6,0,0,0-2-.33Z"/><path class="cls-1" d="M8.43,46.3a5.44,5.44,0,0,1,1.82.3l.18-.56a6,6,0,0,0-2-.33Z"/><path class="cls-2" d="M19.27,7.07c-.05,0-.11.12-.14.15-.22.32-.3.5-.22.58s.2,0,.32-.18a1.18,1.18,0,0,1,.75.2c.26.17.79.84,1.35.61.39-.18.76-.84,1-.84a2.7,2.7,0,0,0,.34,0c.06,0-.06-.55-.21-.51a.43.43,0,0,0-.2.11,9.31,9.31,0,0,0-2.87.12C19.44,7.2,19.41,7.06,19.27,7.07ZM22,7.47c-.15.12-.58.58-.71.65-.47.24-.76-.37-1.22-.58A5.28,5.28,0,0,1,22,7.47Z"/><path class="cls-2" d="M19.27,7.07c-.05,0-.11.12-.14.15-.22.32-.3.5-.22.58s.2,0,.32-.18a1.18,1.18,0,0,1,.75.2c.26.17.79.84,1.35.61.39-.18.76-.84,1-.84a2.7,2.7,0,0,0,.34,0c.06,0-.06-.55-.21-.51a.43.43,0,0,0-.2.11,9.31,9.31,0,0,0-2.87.12C19.44,7.2,19.41,7.06,19.27,7.07ZM22,7.47c-.15.12-.58.58-.71.65-.47.24-.76-.37-1.22-.58A5.28,5.28,0,0,1,22,7.47Z"/><path class="cls-1" d="M19.27,7.07c-.05,0-.11.12-.14.15-.22.32-.3.5-.22.58s.2,0,.32-.18a1.18,1.18,0,0,1,.75.2c.26.17.79.84,1.35.61.39-.18.76-.84,1-.84a2.7,2.7,0,0,0,.34,0c.06,0-.06-.55-.21-.51a.43.43,0,0,0-.2.11,9.31,9.31,0,0,0-2.87.12C19.44,7.2,19.41,7.06,19.27,7.07ZM22,7.47c-.15.12-.58.58-.71.65-.47.24-.76-.37-1.22-.58A5.28,5.28,0,0,1,22,7.47Z"/><path class="cls-2" d="M21.64,6a.74.74,0,0,0,.55.19c.55,0,.93-.76.87-1.63a1.81,1.81,0,0,0-.54-1.25A.73.73,0,0,0,22,3.17c-.55.06-.93.77-.86,1.62A1.83,1.83,0,0,0,21.64,6ZM22,3.48a.45.45,0,0,1,.34.12,1.51,1.51,0,0,1,.43,1,1.77,1.77,0,0,1-.18,1h0s0,0,0,0a1.43,1.43,0,0,0,.06-.5c0-.55-.31-1-.65-.95s-.53.37-.57.81c0,0,0,0,0,0h0c0-.06,0-.12,0-.18C21.34,4.11,21.62,3.52,22,3.48Z"/><path class="cls-2" d="M21.64,6a.74.74,0,0,0,.55.19c.55,0,.93-.76.87-1.63a1.81,1.81,0,0,0-.54-1.25A.73.73,0,0,0,22,3.17c-.55.06-.93.77-.86,1.62A1.83,1.83,0,0,0,21.64,6ZM22,3.48a.45.45,0,0,1,.34.12,1.51,1.51,0,0,1,.43,1,1.77,1.77,0,0,1-.18,1h0s0,0,0,0a1.43,1.43,0,0,0,.06-.5c0-.55-.31-1-.65-.95s-.53.37-.57.81c0,0,0,0,0,0h0c0-.06,0-.12,0-.18C21.34,4.11,21.62,3.52,22,3.48Z"/><path class="cls-1" d="M21.64,6a.74.74,0,0,0,.55.19c.55,0,.93-.76.87-1.63a1.81,1.81,0,0,0-.54-1.25A.73.73,0,0,0,22,3.17c-.55.06-.93.77-.86,1.62A1.83,1.83,0,0,0,21.64,6ZM22,3.48a.45.45,0,0,1,.34.12,1.51,1.51,0,0,1,.43,1,1.77,1.77,0,0,1-.18,1h0s0,0,0,0a1.43,1.43,0,0,0,.06-.5c0-.55-.31-1-.65-.95s-.53.37-.57.81c0,0,0,0,0,0h0c0-.06,0-.12,0-.18C21.34,4.11,21.62,3.52,22,3.48Z"/><path class="cls-2" d="M21.41,4.95h0s0,0,0,0c0-.45.28-.8.57-.81s.63.4.65.95a1.43,1.43,0,0,1-.06.5s0,0,0,0h0a1.77,1.77,0,0,0,.18-1,1.51,1.51,0,0,0-.43-1A.45.45,0,0,0,22,3.48c-.38,0-.66.63-.61,1.29C21.39,4.83,21.4,4.89,21.41,4.95Z"/><path class="cls-2" d="M21.41,4.95h0s0,0,0,0c0-.45.28-.8.57-.81s.63.4.65.95a1.43,1.43,0,0,1-.06.5s0,0,0,0h0a1.77,1.77,0,0,0,.18-1,1.51,1.51,0,0,0-.43-1A.45.45,0,0,0,22,3.48c-.38,0-.66.63-.61,1.29C21.39,4.83,21.4,4.89,21.41,4.95Z"/><path class="cls-2" d="M21.41,4.95h0s0,0,0,0c0-.45.28-.8.57-.81s.63.4.65.95a1.43,1.43,0,0,1-.06.5s0,0,0,0h0a1.77,1.77,0,0,0,.18-1,1.51,1.51,0,0,0-.43-1A.45.45,0,0,0,22,3.48c-.38,0-.66.63-.61,1.29C21.39,4.83,21.4,4.89,21.41,4.95Z"/><path class="cls-3" d="M21.41,4.95h0s0,0,0,0c0-.45.28-.8.57-.81s.63.4.65.95a1.43,1.43,0,0,1-.06.5s0,0,0,0h0a1.77,1.77,0,0,0,.18-1,1.51,1.51,0,0,0-.43-1A.45.45,0,0,0,22,3.48c-.38,0-.66.63-.61,1.29C21.39,4.83,21.4,4.89,21.41,4.95Z"/><path class="cls-2" d="M19.64,6.35c.58,0,1-.76,1-1.64a1.79,1.79,0,0,0-.51-1.27.77.77,0,0,0-.6-.21c-.58.05-1,.77-1,1.63A1.81,1.81,0,0,0,19,6.13.8.8,0,0,0,19.64,6.35Zm-.81-1.5c0-.67.3-1.28.72-1.31a.52.52,0,0,1,.38.14,1.48,1.48,0,0,1,.4,1,1.89,1.89,0,0,1-.12.74h0a1.39,1.39,0,0,0,0-.27c0-.54-.32-1-.65-1s-.59.46-.57,1a1.43,1.43,0,0,0,.06.37h0A1.69,1.69,0,0,1,18.83,4.85Z"/><path class="cls-2" d="M19.64,6.35c.58,0,1-.76,1-1.64a1.79,1.79,0,0,0-.51-1.27.77.77,0,0,0-.6-.21c-.58.05-1,.77-1,1.63A1.81,1.81,0,0,0,19,6.13.8.8,0,0,0,19.64,6.35Zm-.81-1.5c0-.67.3-1.28.72-1.31a.52.52,0,0,1,.38.14,1.48,1.48,0,0,1,.4,1,1.89,1.89,0,0,1-.12.74h0a1.39,1.39,0,0,0,0-.27c0-.54-.32-1-.65-1s-.59.46-.57,1a1.43,1.43,0,0,0,.06.37h0A1.69,1.69,0,0,1,18.83,4.85Z"/><path class="cls-1" d="M19.64,6.35c.58,0,1-.76,1-1.64a1.79,1.79,0,0,0-.51-1.27.77.77,0,0,0-.6-.21c-.58.05-1,.77-1,1.63A1.81,1.81,0,0,0,19,6.13.8.8,0,0,0,19.64,6.35Zm-.81-1.5c0-.67.3-1.28.72-1.31a.52.52,0,0,1,.38.14,1.48,1.48,0,0,1,.4,1,1.89,1.89,0,0,1-.12.74h0a1.39,1.39,0,0,0,0-.27c0-.54-.32-1-.65-1s-.59.46-.57,1a1.43,1.43,0,0,0,.06.37h0A1.69,1.69,0,0,1,18.83,4.85Z"/><path class="cls-2" d="M19.05,5.59A1.43,1.43,0,0,1,19,5.23c0-.53.23-1,.57-1s.63.41.65,1a1.39,1.39,0,0,1,0,.27h0a1.89,1.89,0,0,0,.12-.74,1.48,1.48,0,0,0-.4-1,.52.52,0,0,0-.38-.14c-.41,0-.74.64-.72,1.31a1.69,1.69,0,0,0,.2.74h0Z"/><path class="cls-2" d="M19.05,5.59A1.43,1.43,0,0,1,19,5.23c0-.53.23-1,.57-1s.63.41.65,1a1.39,1.39,0,0,1,0,.27h0a1.89,1.89,0,0,0,.12-.74,1.48,1.48,0,0,0-.4-1,.52.52,0,0,0-.38-.14c-.41,0-.74.64-.72,1.31a1.69,1.69,0,0,0,.2.74h0Z"/><path class="cls-2" d="M19.05,5.59A1.43,1.43,0,0,1,19,5.23c0-.53.23-1,.57-1s.63.41.65,1a1.39,1.39,0,0,1,0,.27h0a1.89,1.89,0,0,0,.12-.74,1.48,1.48,0,0,0-.4-1,.52.52,0,0,0-.38-.14c-.41,0-.74.64-.72,1.31a1.69,1.69,0,0,0,.2.74h0Z"/><path class="cls-3" d="M19.05,5.59A1.43,1.43,0,0,1,19,5.23c0-.53.23-1,.57-1s.63.41.65,1a1.39,1.39,0,0,1,0,.27h0a1.89,1.89,0,0,0,.12-.74,1.48,1.48,0,0,0-.4-1,.52.52,0,0,0-.38-.14c-.41,0-.74.64-.72,1.31a1.69,1.69,0,0,0,.2.74h0Z"/></g></g></svg>