<svg xmlns="http://www.w3.org/2000/svg" viewBox="0 0 119.75 48.66"><defs><style>.cls-1{fill:#7f7f7f;}</style></defs><title>Asset 15</title><g id="Layer_2" data-name="Layer 2"><g id="Layer_2-2" data-name="Layer 2"><path class="cls-1" d="M0,0V48.66H119.75V0ZM77,12l12.88,0,0,9.44-3.36,0V15l-8.87,0c-3.38,0-3.75.92-3.75,2s.73,1.76,3.58,1.76h7.74L83,21.53l-7.42,0c-3.68-.11-4.91-2.24-4.92-4.81C70.62,14.29,72.26,12.08,77,12ZM66,12h3.38v9.46H66Zm-5.3,0,4.81,0L59.85,16l5.66,5.49H60.93l-5.32-5.55Zm-8.81-1.87h3.38V21.49H51.94ZM36,12h8.33C48,12,51,14.13,51,16.74s-3,4.73-6.63,4.73H36c-3.66,0-6.63-2.12-6.63-4.73S32.35,12,36,12ZM13,12H23.61c1.83,0,2.64.2,3.58.93a3.6,3.6,0,0,1,1.22,2.83s0,5.71,0,5.7H25V18.21c0-1,.18-2.21-.33-2.75s-1.39-.35-2.45-.39H16.37v6.42H13ZM44.84,32.67v5.66H36.94V32.67L29.5,25.43v3.84h-4.3v9H17.26v-9H13V25.4H29.46l0,0v0h9l1.68,2.14c.27.4.55.81.79,1.23a12.69,12.69,0,0,1,.92-1.37l1.56-2h8.91Zm19,5.66-4-4.74v4.74H52.47V25.4h8.91c.64,0,1.28,0,1.92,0,2.47.09,4.73.5,6.29,1.72A3.17,3.17,0,0,1,71,29.7a3.23,3.23,0,0,1-2.26,2.93,9.79,9.79,0,0,1-1.74.51l5.22,5.18Zm23.83,0H73V25.4H87.48V29H80.34v1.06h6.59v3.44H80.34v1.21H87.7Zm16.57-1.08a13.4,13.4,0,0,1-6.56,1.37,27.61,27.61,0,0,1-8.85-1.47l2.5-3.55A14.09,14.09,0,0,0,96.63,35c1.34,0,2-.39,2-.79s-1-.61-1.56-.68c-.92-.09-2.32-.27-3.18-.44-1.28-.28-4.12-1.06-4.12-3.37a3.22,3.22,0,0,1,.79-2.05C92.14,25.8,95.47,25,98.74,25c.37,0,1.13,0,2.11.11a26.9,26.9,0,0,1,5.46,1.12L104,29.63a13,13,0,0,0-4.55-1c-1.19,0-1.77.26-1.77.66s1,.59,1.62.66c.95.13,2.53.35,3.45.55,3.6.84,4,2.58,4,3.46C106.77,34.66,106.49,36,104.26,37.25Zm2.51-15.78h-3.38V18.19c0-1,.18-2.21-.32-2.75s-1.39-.35-2.46-.39H94.73v6.42H91.35V12H102c1.83,0,2.64.2,3.58.93a3.61,3.61,0,0,1,1.22,2.83S106.78,21.47,106.77,21.46Zm2.82-6.91A2.41,2.41,0,1,1,112,12.14,2.41,2.41,0,0,1,109.59,14.55Z"/><path class="cls-1" d="M110.09,11.48a.5.5,0,0,0-.56-.57.71.71,0,0,0-.3.05V12a.87.87,0,0,0,.22,0C109.87,12.06,110.09,11.85,110.09,11.48Z"/><path class="cls-1" d="M60.9,28.89h-1v2.18h1.07A3.2,3.2,0,0,0,63,30.62a.88.88,0,0,0,.31-.66C63.34,28.78,61.21,28.89,60.9,28.89Z"/><path class="cls-1" d="M109.59,10a2.09,2.09,0,1,0,2,2.09A2,2,0,0,0,109.59,10Zm.51,3.43-.86-1.32h0v1.32h-.39V10.82a1.5,1.5,0,0,1,.69-.14c.63,0,.94.31.94.78a.76.76,0,0,1-.8.75l.88,1.26Z"/><path class="cls-1" d="M37.27,18.66H43.1c2.56,0,4.64-.09,4.64-1.92s-2.08-1.87-4.64-1.87H37.27c-2.56,0-4.64,0-4.64,1.87S34.7,18.66,37.27,18.66Z"/></g></g></svg>