<svg xmlns="http://www.w3.org/2000/svg" viewBox="0 0 175.18 28.68"><defs><style>.cls-1{fill:#7f7f7f;}</style></defs><title>Asset 14</title><g id="Layer_2" data-name="Layer 2"><g id="Layer_2-2" data-name="Layer 2"><g id="_Group_" data-name=" Group "><path id="_Path_" data-name=" Path " class="cls-1" d="M17.52,12.85l-.07.18a7.27,7.27,0,0,1,3.85,6.76,8.17,8.17,0,0,1-8.51,7.88c-6.47,0-8.7-3.78-8.7-7.26C4.09,16,7.2,13,7.2,8.94a6.34,6.34,0,0,0-5-6.12L2.1,3a5.25,5.25,0,0,1,1.6,3.8C3.69,11.19,0,14.3,0,19.33,0,24,3.24,28.68,12.61,28.68c8.36,0,12.76-4.09,12.76-8.44C25.37,16.5,22.69,13.34,17.52,12.85Z"/><path id="_Compound_Path_" data-name=" Compound Path " class="cls-1" d="M54.23,27.94,43.12,13.62V26.53l2.27.54v.59H40.22v-.59l1.85-.54V12.46a4,4,0,0,0-1.58-.9l-.53-.1v-.59h4.38L53.83,23.2V12l-2.27-.55v-.59h5.17v.59L54.88,12v12.8c0,1.19.08,2.91.1,3.13Zm23.22-9.12c0,5.93-4.15,9.37-8.69,9.37a8.66,8.66,0,0,1-8.71-8.91,8.67,8.67,0,0,1,8.66-8.94,8.45,8.45,0,0,1,8.72,8.17q0,.16,0,.32Zm-2.89.89c0-4.36-2.61-8.59-6.16-8.59-3.77,0-5.47,3.65-5.47,7.55s2.15,8.74,6.2,8.74C72.94,27.41,74.56,23.55,74.56,19.71ZM81,12l-1.78-.55v-.59h6.81v.59L83.94,12l4.7,12.82h0L93.34,12l-2.13-.55v-.59h5v.59L94.47,12,88.58,28H87.07Zm40.27,7.09h-1.08V11.74c3.56,0,5.68.82,5.68,3.72C125.88,17.62,124,19.08,121.3,19.08Zm30.49,8,2.37-.54V12l-2.37-.55v-.59h7.39v.59l-2.37.55V26.53l2.37.54v.59h-7.39Zm11.93-4h.47l1.57,3.62a7,7,0,0,0,3,.75c2,0,3.9-1.19,3.9-3.31,0-1.61-1-2.57-2.73-3.46l-1.67-.87c-2-1-4-2.51-4-4.87,0-2.57,1.78-4.56,5.59-4.56a13.13,13.13,0,0,1,3.94.65l.4,3.89h-.5l-1.45-3.12a5,5,0,0,0-2.46-.64c-1.93,0-3.24,1.19-3.24,2.83,0,1.49,1,2.43,2.69,3.3l2,1c2.7,1.4,4,2.7,4,5.1,0,3-2.78,4.81-6.24,4.81a14.88,14.88,0,0,1-4.8-.72Zm-68.55,4,1.9-.54,5.88-15.67,2-.5L111,26.52l1.9.55v.59h-7.2v-.59l2.44-.55-1.72-4.65H99.93l-1.71,4.65,2.44.54v.59h-5.5Zm5.22-6.43H106l-2.78-7.5h0Zm24.31-1.19c.59-.15,3.92-1,3.92-4.15,0-2.53-1.94-4.5-6.72-4.5-3,0-5.93.07-6.3.08v.59l2,.55V26.52l-2,.55v.59h6.9v-.59l-2.27-.55V20h2l5,7.71h4.42v-.59l-2.24-.59Zm14.58-7.71V26.53l-2.37.54v.59h7.39v-.59l-2.37-.54V11.74h4l1.32,2.83h.51l-.38-3.69H133.83l-.38,3.69H134l1.3-2.8ZM12.73,22.41,15.1,0H10.18l2.37,22.41Z"/></g></g></g></svg>