<svg xmlns="http://www.w3.org/2000/svg" viewBox="0 0 61.8 61.8"><defs><style>.cls-1{fill:#7f7f7f;}</style></defs><title>Asset 13</title><g id="Layer_2" data-name="Layer 2"><g id="Layer_2-2" data-name="Layer 2"><path class="cls-1" d="M35.6,27.67c0-.39,0-.74-.39-.87s-1.07.13-1.54.83a5,5,0,0,0-.62,3.15C33.51,30.59,35.38,29.12,35.6,27.67Z"/><path class="cls-1" d="M28.34,36.08a2,2,0,0,0,2.4,2.06A6.2,6.2,0,0,0,33,37.36,13.67,13.67,0,0,1,30.91,33C30,33.42,28.34,34.53,28.34,36.08Z"/><path class="cls-1" d="M25.61,27.73c1.55-4.53-.85-4.65-1.71-4.65H23L20.4,31.51S24,32.48,25.61,27.73Z"/><path class="cls-1" d="M30.9,0A30.9,30.9,0,1,0,61.8,30.9,30.9,30.9,0,0,0,30.9,0Zm-12,39.7H12.32a2.46,2.46,0,0,0,1.29-1.34l4.76-15.22a1.17,1.17,0,0,0-.44-1.47h8.16c2.46,0,6.26,1.36,4.24,6.35C27.92,34,20,32.91,20,32.91l-1.73,5.51A1,1,0,0,0,18.93,39.7Zm16.67,0a10.78,10.78,0,0,1-1.67-1.36A8.33,8.33,0,0,1,29.72,40a3.85,3.85,0,0,1-3.58-1.64,3.48,3.48,0,0,1-.5-1.85,4.21,4.21,0,0,1,.29-1.56c.94-2.15,3.56-2.86,4.52-3.21l.22-.09c0-.1,0-.29,0-.5a6,6,0,0,1,1.54-4.29,4.32,4.32,0,0,1,2-1,3.19,3.19,0,0,1,2.83.73,2,2,0,0,1,.6,1.43v.07a3,3,0,0,1-1.2,2.15A13.82,13.82,0,0,1,33.26,32a9,9,0,0,0,1.66,3.83,2.92,2.92,0,0,0,.59-1.68.93.93,0,0,0-.46-.79h2.31a5.36,5.36,0,0,1-1.67,3.56,12.55,12.55,0,0,0,4.38,2.77Zm10.56-1.25,2-6.51a1.24,1.24,0,0,0-.87-1.53h7.1A2.29,2.29,0,0,0,52.83,32l-2.06,6.5c-.35.17-5.3,2.73-9.78.51-4.19-2.07-3.37-9.78-.07-13.55,5.36-6.13,12.95-3.55,14-3.24l-.74,2.39c-.2-.13-2.39-2.2-5-1.57-3.14.77-5.08,4.7-5.76,6.84C40.17,39.93,45.89,38.5,46.16,38.46Z"/></g></g></svg>