<svg xmlns="http://www.w3.org/2000/svg" viewBox="0 0 159.43 49.91"><defs><style>.cls-1{fill:#7f7f7f;}</style></defs><title>Asset 12</title><g id="Layer_2" data-name="Layer 2"><g id="Layer_2-2" data-name="Layer 2"><path class="cls-1" d="M32.67,26.67h6.4a18.87,18.87,0,0,1,2.72.09c2,.27,4.06,1.16,4.06,3.6a3.11,3.11,0,0,1-2.66,3.31v.12c2.1.37,3.31,1.49,3.31,3.72,0,3.64-3.48,4.64-6.29,4.78-.69,0-1.57,0-2.16,0H32.67Zm4.49,12.66H39c1.55,0,3.06-.46,3.06-2s-1.15-1.89-3.28-1.89H37.16Zm.09-6.59h1.36c1.86,0,3-.37,3-1.58,0-1-.68-1.52-2.51-1.52H37.25Z"/><path class="cls-1" d="M10.46,42.61C3.68,42.61,0,37.71,0,31.58S4.33,20.31,11.45,20.31a10.52,10.52,0,0,1,5,1v4A8.86,8.86,0,0,0,11.61,24c-4.83,0-6.72,3.56-6.72,7.31,0,4.18,2.35,7.49,6.28,7.49A9.57,9.57,0,0,0,16,37.47l1.18,3.16a11.89,11.89,0,0,1-6.72,2Zm76.47,0c-5,0-7.58-3.68-7.58-8.08,0-4.92,3.41-8.17,8-8.17a7,7,0,0,1,3.9.9v3.53A5,5,0,0,0,88,29.7c-2.57,0-4.15,1.89-4.15,4.61,0,2.44,1.21,4.83,4.08,4.83a7.11,7.11,0,0,0,3-.9L92,41.12a10.3,10.3,0,0,1-5,1.49ZM100.8,30.19V42.3H96.34V30.19H92V26.66h13.68l-1.11,3.53Zm21.42-1.7c0,5.45-.22,8.3-1.21,9.6a3.26,3.26,0,0,1-2.07,1.21l1.24,3.31a5.76,5.76,0,0,0,3.68-1.55A7.85,7.85,0,0,0,126,36a44.87,44.87,0,0,0,.31-5.08v-.77h3.48V42.3h4.46V26.66h-12ZM21.14,35.7c.09,2.11,2.08,3.41,4.15,3.41A9.36,9.36,0,0,0,29.72,38l1,2.82a11.33,11.33,0,0,1-6.16,1.8c-5.58,0-7.86-4-7.86-8.08,0-4.4,2.63-8.17,7.3-8.17,4.27,0,7.25,3.16,7.25,8V35.7Zm2.73-6.1a2.93,2.93,0,0,0-2.82,3h5.63c-.09-1.49-.93-3-2.82-3Zm28,6.1c.09,2.11,2.08,3.41,4.15,3.41A9.34,9.34,0,0,0,60.43,38l1,2.82a11.34,11.34,0,0,1-6.16,1.8c-5.57,0-7.86-4-7.86-8.08,0-4.4,2.63-8.17,7.31-8.17,4.27,0,7.25,3.16,7.25,8V35.7Zm2.72-6.1a2.93,2.93,0,0,0-2.82,3H57.4c-.09-1.49-.93-3-2.82-3Zm59.66,11.3a5.92,5.92,0,0,1-4.3,1.7,4.91,4.91,0,0,1-5.2-5.08c0-3.31,2.66-5,6.63-5.14L114,32.3V32c0-1.64-1.33-2.29-2.88-2.29a7.67,7.67,0,0,0-4,1.08l-1.36-2.73a10.86,10.86,0,0,1,6.32-1.7c4.12,0,6.32,1.64,6.32,5.76V42.3H115ZM112,35.3c-1.92.06-2.82.71-2.82,1.89s.83,2,2.35,2a3.86,3.86,0,0,0,2.42-.71V35.24ZM67.83,42v6.59l-4.46,1.36V26.66h3.75l.49,1.42a6.75,6.75,0,0,1,4.21-1.73c3.59,0,6.41,2.72,6.41,7.68,0,4.64-2.79,8.58-7.4,8.58a6.43,6.43,0,0,1-3-.65Zm0-10.59v7.4a3.29,3.29,0,0,0,1.92.62c3,0,4-2.76,4-5.42,0-3.22-1.05-4.36-2.85-4.36a4.33,4.33,0,0,0-3.09,1.76Z"/><path class="cls-1" d="M140.55,31.75V26l-4.46,1.36v15h5.7c4.15,0,8-1.12,8-5.42,0-3.65-3.12-5.14-7-5.14Zm0,7.46V34.85H142c1.58,0,3.32.25,3.32,2.1s-1.49,2.26-3.25,2.26Z"/><path class="cls-1" d="M156.56,16.45a3,3,0,0,0,.82-.43,31.62,31.62,0,0,0,1.12-3.5h0a29.78,29.78,0,0,0,.84-4.65,19.22,19.22,0,0,0,0-3.76,5,5,0,0,0-1.11-3,5,5,0,0,0-3-1.06,20.64,20.64,0,0,0-3.75.08,3,3,0,0,1,.78.49,4.57,4.57,0,0,1,1.15,2.76,15.31,15.31,0,0,1,.12,2.53,23.57,23.57,0,0,1-.79,5.11,24.85,24.85,0,0,1-1.34,3.89,15.86,15.86,0,0,0,2.21,1.14A4.57,4.57,0,0,0,156.56,16.45Z"/><path class="cls-1" d="M140.3,13.26a3,3,0,0,0,0,.92,32.3,32.3,0,0,0,2.47,2.71,29.7,29.7,0,0,0,3.63,3.06,20.35,20.35,0,0,0,3.24,1.89,4.91,4.91,0,0,0,3.15.54,5,5,0,0,0,2.43-2.09A19.18,19.18,0,0,0,157,17a2.91,2.91,0,0,1-.83.43,4.55,4.55,0,0,1-3-.38,15.33,15.33,0,0,1-2.25-1.17,23.58,23.58,0,0,1-4-3.24h0a25.13,25.13,0,0,1-2.7-3.1,15.54,15.54,0,0,0-2.09,1.34A4.57,4.57,0,0,0,140.3,13.26Z"/><path class="cls-1" d="M151.18.74a2.89,2.89,0,0,0-.74-.47,30.87,30.87,0,0,0-3.62.78,29.67,29.67,0,0,0-4.44,1.59,19.24,19.24,0,0,0-3.24,1.85A5,5,0,0,0,137.07,7a5,5,0,0,0,.61,3.17,19.32,19.32,0,0,0,1.94,3.19,3,3,0,0,1,0-.94A4.57,4.57,0,0,1,141.46,10a15.32,15.32,0,0,1,2.13-1.36,23.55,23.55,0,0,1,4.82-1.88h0a24.81,24.81,0,0,1,4-.79,15.4,15.4,0,0,0-.12-2.5A4.57,4.57,0,0,0,151.18.74Z"/></g></g></svg>