<svg xmlns="http://www.w3.org/2000/svg" xmlns:xlink="http://www.w3.org/1999/xlink" width="278.4" height="477" viewBox="0 0 278.4 477"><svg viewBox="0 0 30 42" width="30" height="42" id="arrow_up" y="0"><title>Asset 1</title><path fill="#fff" d="M0 14v2l1 1h12v24l1 1h2l1-1V17h12l1-1v-2L16 0h-2L0 14z"></path></svg><svg viewBox="0 0 30 42" width="30" height="42" id="arrow_up-g" y="42"><title>Asset 2</title><path fill="#14e3b2" d="M0 14v2l1 1h12v24l1 1h2l1-1V17h12l1-1v-2L16 0h-2L0 14z"></path></svg><svg viewBox="0 0 43 30" width="43" height="30" id="arrw-button" y="84"><title>Asset 30</title><path fill="#fff" d="M28.6 0h-1.3L26 1.3V13H1.3L0 14.3v1.4L1.3 17H26v11.7l1.3 1.3h1.3L43 15.7v-1.4L28.6 0z"></path></svg><svg viewBox="0 0 26 14" width="26" height="14" id="arrw-button-small" y="114"><title>Asset 9</title><path fill="#14e3b2" d="M20 0h-1v6H0v2h19v6h1l6-6V6l-6-6z"></path></svg><svg viewBox="0 0 26 14" width="26" height="14" id="arrw-button-small-w" y="128"><title>Asset 8</title><path fill="#fff" d="M20 0h-1v6H0v2h19v6h1l6-6V6l-6-6z"></path></svg><svg viewBox="0 0 62 30" width="62" height="30" id="arrw-button-w" y="142"><title>Asset 31</title><path fill="#fff" d="M48.5 0h-1.3L46 1.3V13H1.3L0 14.3v1.4L1.3 17H46v11.7l1.2 1.3h1.3L62 15.7v-1.4L48.5 0z"></path></svg><svg viewBox="0 0 28 28" width="28" height="28" id="checkbox-checked" y="172"><title>Asset 26</title><path d="M26 28H2l-2-2V2l2-2h24l2 2v24z"></path><path fill="#fff" d="M11.79 17.32l-4.24-4.25-1.42 1.42 5.66 5.65 9.9-9.89-1.41-1.42-8.49 8.49z"></path></svg><svg viewBox="0 0 28 28" width="28" height="28" id="checkbox-empty" y="200"><title>Asset 25</title><path d="M26 28H2l-2-2V2l2-2h24l2 2v24z" fill="#eeeeef"></path></svg><svg viewBox="0 0 14 14" width="14" height="14" id="grid_arrw" y="228"><title>Asset 1</title><path fill="#14e3b2" d="M8 0v2h2.6L6.3 6.3l1.4 1.4L12 3.4V6h2V1l-1-1H8z"></path><path fill="#14e3b2" d="M12 12H2V2h4V0H1L0 1v12l1 1h12l1-1V8h-2v4z"></path></svg><svg viewBox="0 0 278.4 50" width="278.4" height="50" id="logo-desktop" y="242"><title>Asset 1</title><path fill="#fff" d="M5.8 0H1.9L0 1.9v46.2L1.9 50h3.9l25-23.1v-3.8L5.8 0zM38.5 0h-3.9l-1.9 1.9v46.2l1.9 1.9h3.9l25-23.1v-3.8L38.5 0zM274.9 29.4l-9.7 15.7V29.4h-3V50h3.5l9.7-15.7V50h3V29.4h-3.5zM239.8 0h3v20.6h-3zM178.9 17.7h-2.1V0h-12.2l-3 3v14.7h-2.1v2.9H179v-2.9zm-5.1 0h-9.2V4.2l1.3-1.3h7.9zM195.5 20.6l3-3V3.1l-3-3H185l-3 3v14.5l3 3zM184.9 4.2l1.3-1.3h8.1l1.3 1.3v12.3l-1.3 1.3h-8.1l-1.3-1.3zM236.9 17.6V12l-3-3.1h-8.1V0h-3v20.6h11.1zm-11.1.1v-6h6.8l1.3 1.3v3.4l-1.3 1.3zM215.5 20.6l3-3v-5.4l-1.8-1.8 1.8-1.8V3.1l-3-3H203v20.6zM206 2.9h8.3l1.3 1.3v3.4l-1.3 1.3H206zm0 14.8v-6h8.2l1.3 1.3v3.4l-1.3 1.3zM82.7 20.6h3V2.9h10.9v17.7h3V0H82.7v20.6zM103.7 20.6h14.5v-2.9h-11.5v-5.9h10.2V8.9h-10.2v-6h11.5V0h-14.5v20.6zM156.5 17.7h-11.4v-5.9h10.1V8.9h-10.1v-6h11.4V0H142v20.6h14.5v-2.9zM247.3 20.6h14.4v-2.9h-11.4v-5.9h10.1V8.9h-10.1v-6h11.4V0h-14.4v20.6zM82.7 32.3h6.7V50h3V32.3H99v-2.9H82.7v2.9zM184.4 32.4v14.7h-2.2V50h2.8l2.4-2.3V33.5l1.2-1.2h7.8V50h3V29.4h-12l-3 3zM224.8 50h3V32.3h10v-2.9h-13V50zM155.3 38.2h-9.9v-8.8h-3V50h3v-8.9h9.9V50h3V29.4h-3v8.8zM125.4 11.8h9.5l3-3.1V3.1l-3-3h-12.5v20.6h3zm0-8.9h8.3l1.3 1.3v3.4l-1.3 1.3h-8.2v-6zM176.2 29.4h-10.5l-3 3v14.5l3 3h10.5l3-3V32.5zm0 16.4l-1.3 1.3h-8.1l-1.3-1.3V33.5l1.3-1.3h8.1l1.3 1.3zM206.8 29.4l-3 3v14.5l3 3h10.5l3-3V32.5l-3-3h-10.5zm10.6 16.4l-1.3 1.3H208l-1.3-1.3V33.5l1.3-1.3h8.1l1.3 1.3v12.3zM131 38.2h-2.3l-4.8-8.8h-2.8v1l5 9.3-5 9.3v1h2.8l4.8-8.9h2.3l4.8 8.9h2.8v-1l-5-9.3 5-9.3v-1h-2.8l-4.8 8.8zM102.8 50h14.4v-2.9h-11.4v-6H116v-2.9h-10.2v-5.9h11.4v-2.9h-14.4V50zM244.7 45.1V29.4h-3V50h3.5l9.7-15.7V50h3V29.4h-3.5l-9.7 15.7z"></path></svg><svg viewBox="0 0 64 50" width="64" height="50" id="logo-footer" y="292"><title>Asset 28</title><path fill="#fff" d="M5.8 0H1.9L0 1.9v46.2L1.9 50h3.9L31 26.9v-3.8L5.8 0zM38.8 0h-3.9L33 1.9v46.2l1.9 1.9h3.9L64 26.9v-3.8L38.8 0z"></path></svg><svg viewBox="0 0 38 30" width="38" height="30" id="logo-mobile" y="342"><title>Asset 29</title><path fill="#fff" d="M3.4 0H1.1L0 1.2v27.6L1.1 30h2.3L18 16.2v-2.4L3.4 0zM23.4 0h-2.3L20 1.2v27.6l1.1 1.2h2.3L38 16.2v-2.4L23.4 0z"></path></svg><svg viewBox="0 0 167 30" width="167" height="30" id="logo-tablet" y="372"><title>Asset 1</title><path fill="#fff" d="M3.5 0H1.1L0 1.1v27.8L1.1 30h2.4l15-13.9v-2.2L3.5 0zM23.1 0h-2.3l-1.2 1.1v27.8l1.2 1.1h2.3l15-13.9v-2.2L23.1 0zM164.9 17.6l-5.8 9.5v-9.5h-1.8V30h2.1l5.8-9.4V30h1.8V17.6h-2.1zM143.8 0h1.8v12.36h-1.8zM107.3 10.6H106V0h-7.3l-1.8 1.8v8.8h-1.2v1.7h11.7v-1.7zm-3.1 0h-5.5V2.5l.8-.8h4.7zM117.3 12.4l1.8-1.8V1.9L117.3.1H111l-1.8 1.8v8.7l1.8 1.8zm-6.4-9.8l.8-.8h4.9l.8.8v7.3l-.8.8h-4.9l-.8-.8zM142.1 10.6V7.2l-1.8-1.9h-4.9V0h-1.8v12.4h6.7zm-6.7.1V7h4.1l.8.8v2l-.8.8zM129.3 12.4l1.8-1.8V7.3L130 6.2l1.1-1.1V1.9L129.3.1h-7.5v12.3zm-5.7-10.7h5l.8.8v2l-.8.8h-5zm0 8.9V7h4.9l.8.8v2l-.8.8zM49.6 12.4h1.8V1.7h6.5v10.7h1.8V0H49.6v12.4zM62.2 12.4h8.7v-1.8H64V7.1h6.1V5.3H64V1.7h6.9V0h-8.7v12.4zM93.9 10.6H87V7.1h6.1V5.3H87V1.7h6.9V0h-8.7v12.4h8.7v-1.8zM148.3 12.4h8.7v-1.8h-6.9V7.1h6.1V5.3h-6.1V1.7h6.9V0h-8.7v12.4zM49.6 19.4h4V30h1.8V19.4h4v-1.8h-9.8v1.8zM110.6 19.4v8.9h-1.3V30h1.7l1.4-1.4v-8.5l.7-.7h4.7V30h1.8V17.6h-7.2l-1.8 1.8zM134.8 30h1.8V19.4h6v-1.8h-7.8V30zM93.2 22.9h-6v-5.3h-1.8V30h1.8v-5.3h6V30H95V17.6h-1.8v5.3zM75.2 7.1h5.7l1.8-1.9V1.9L80.9.1h-7.5v12.3h1.8zm0-5.3h5l.8.8v2l-.8.8h-4.9V1.7zM105.7 17.6h-6.3l-1.8 1.8v8.7l1.8 1.8h6.3l1.8-1.8v-8.6zm0 9.8l-.8.8H100l-.8-.8v-7.3l.8-.8h4.9l.8.8zM124.1 17.6l-1.8 1.8v8.7l1.8 1.8h6.3l1.8-1.8v-8.6l-1.8-1.8h-6.3zm6.4 9.8l-.8.8h-4.9l-.8-.8v-7.3l.8-.8h4.9l.8.8v7.4zM78.6 22.9h-1.4l-2.9-5.3h-1.7v.6l3 5.6-3 5.6v.6h1.7l2.9-5.3h1.4l2.9 5.3h1.6v-.6l-3-5.6 3-5.6v-.6h-1.6l-2.9 5.3zM61.7 30h8.6v-1.7h-6.8v-3.6h6.1v-1.8h-6.1v-3.5h6.8v-1.8h-8.6V30zM146.8 27.1v-9.5H145V30h2.1l5.8-9.4V30h1.8V17.6h-2.1l-5.8 9.5z"></path></svg><svg viewBox="0 0 18.4 18.4" width="18.4" height="18.4" id="menu-close" y="402"><title>Asset 21</title><path fill="#fff" d="M.018 16.978L16.988.008l1.415 1.414-16.97 16.97z"></path><path fill="#fff" d="M1.422.018l16.97 16.97-1.414 1.415L.008 1.433z"></path></svg><svg viewBox="0 0 18 18" width="18" height="18" id="menu-open" y="421"><title>Asset 20</title><path fill="#fff" d="M0 16h18v2H0zM0 8h18v2H0zM0 0h18v2H0z"></path></svg><svg viewBox="0 0 18.4 18.4" width="18.4" height="18.4" id="modal-close" y="439"><title>Asset 32</title><path fill="#737680" d="M.018 16.978L16.988.008l1.415 1.414-16.97 16.97z"></path><path fill="#737680" d="M1.422.018l16.97 16.97-1.414 1.415L.008 1.433z"></path></svg><svg viewBox="0 0 18.4 18.4" width="18.4" height="18.4" id="modal-close-white" y="458"><title>Asset 1</title><path fill="#fff" d="M.018 16.978L16.988.008l1.415 1.414-16.97 16.97z"></path><path fill="#fff" d="M.018 1.422L1.433.008l16.97 16.97-1.414 1.414z"></path></svg></svg>